<svg xmlns="http://www.w3.org/2000/svg" version="1.1" xmlns:xlink="http://www.w3.org/1999/xlink" width="512" height="512" x="0" y="0" viewBox="0 0 64 64" style="enable-background:new 0 0 512 512" xml:space="preserve" class=""><g><g fill="#303030"><path d="M32 59a2 2 0 0 0 0-4 22.99 22.99 0 0 1-15.951-39.556v6.913a2 2 0 0 0 4 0V11.31a2 2 0 0 0-2-2H7a2 2 0 0 0 0 4h5.53A26.989 26.989 0 0 0 32 59zM32 5a2 2 0 0 0 0 4 22.995 22.995 0 0 1 15.951 39.563V41.81a2 2 0 0 0-4 0v11.048a2 2 0 0 0 2 2H57a2 2 0 0 0 0-4h-5.69A26.99 26.99 0 0 0 32 5z" fill="#303030" opacity="1" data-original="#303030"></path></g></g></svg>